# xmcd CD database file
# Copyright (C) 1993-1998 Ti Kan
#
# Track frame offsets:
#    182
#    28980
#    61460
#    83347
#    101512
#    123095
#    134695
#    163207
#
# Disc length: 2626 seconds
#
# Revision: 1
# Processed by: cddbd v1.4b41PL1 Copyright (c) Steve Scherf et al.
# Submitted via: MyCDplayer 5.0.1  (wjohn@fix.net)
#
DISCID=670a4008
DTITLE=Lightnin' Hopkins - 
DTITLE=Lightnin' in New York
DYEAR=1900
DGENRE=
TTITLE0=Take it Easy
TTITLE1=Mighty Crazy
TTITLE2=Your Own Fault, Baby, To Treat Me the Way You
TTITLE3=I've Had My Fun If I Don't Get Well No More
TTITLE4=The Troubled Blues
TTITLE5=Lightnin's Piano Boogie
TTITLE6=Wonder Why
TTITLE7=Mister Charlie
EXTD=
EXTT0=
EXTT1=
EXTT2=
EXTT3=
EXTT4=
EXTT5=
EXTT6=
EXTT7=
PLAYORDER=
